<svg xmlns="http://www.w3.org/2000/svg" fill="#8bb7f0"  viewBox="0 0 24 24" width="24px" height="24px"><circle cx="19" cy="5" r="2" opacity=".35"/><circle cx="5" cy="5" r="2" opacity=".35"/><circle cx="12" cy="5" r="2" opacity=".35"/><rect width="2" height="10" x="11" y="8" opacity=".35" transform="rotate(90 12 13)"/><path d="M15,11c0-1.657-1.343-3-3-3s-3,1.343-3,3c0,0.549,0,1,0,1h6C15,12,15,11.549,15,11z"/><path d="M15,22c-0.552,0-1-0.447-1-1v-2.998c0-0.535,0.208-1.037,0.587-1.415c0.378-0.377,0.879-0.585,1.413-0.585	c0.001,0,0.002,0,0.004,0l2.998,0.006c0.552,0.001,0.999,0.449,0.998,1.002c-0.001,0.552-0.449,0.998-1,0.998c0,0-0.001,0-0.002,0	L16,18.002V21C16,21.553,15.552,22,15,22z"/><path d="M19.5,8C18.119,8,17,9.119,17,10.5c0,0.458,0,5.024,0,5.024l-1.863,0.667L16,21l0.243-2.63L19,18c1.657,0,3-1.343,3-3	c0,0,0-4.042,0-4.5C22,9.119,20.881,8,19.5,8z"/><path d="M9,22c0.552,0,1-0.447,1-1v-2.998c0-0.535-0.208-1.037-0.587-1.415C9.035,16.21,8.534,16.002,8,16.002	c-0.001,0-0.002,0-0.004,0l-2.998,0.006C4.446,16.009,3.999,16.457,4,17.01c0.001,0.552,0.449,0.998,1,0.998c0,0,0.001,0,0.002,0	L8,18.002V21C8,21.553,8.448,22,9,22z"/><path d="M4.5,8C5.881,8,7,9.119,7,10.5c0,0.458,0,5.024,0,5.024l1.863,0.667L8,21l-0.243-2.63L5,18c-1.657,0-3-1.343-3-3	c0,0,0-4.042,0-4.5C2,9.119,3.119,8,4.5,8z"/></svg>